<?xml version="1.0" encoding="utf-8"?>
<!-- Generator: Adobe Illustrator 22.0.0, SVG Export Plug-In . SVG Version: 6.00 Build 0)  -->
<svg version="1.1" id="图层_1" xmlns="http://www.w3.org/2000/svg" xmlns:xlink="http://www.w3.org/1999/xlink" x="0px" y="0px"
	 viewBox="0 0 12 14.7" style="enable-background:new 0 0 12 14.7;" xml:space="preserve">
<style type="text/css">
	.st0{fill:#FFFFFF;}
	.st1{fill:#888988;}
	.st2{fill:none;stroke:#212121;stroke-linecap:round;stroke-linejoin:round;stroke-miterlimit:10;}
</style>
<g>
	<path class="st1" d="M9.1,12.4c-1.9,0.9-4.2,1-6.1,0l-0.7,0.7c-0.3,0.3-0.3,0.7-0.2,1c0.1,0.3,0.5,0.6,0.9,0.6h6.3
		c0.4,0,0.7-0.2,0.8-0.6c0.1-0.3,0.1-0.7-0.2-1L9.1,12.4L9.1,12.4z M6,3.3c1.5,0,2.7,1.2,2.7,2.7S7.5,8.7,6,8.7S3.3,7.5,3.3,6
		C3.3,4.5,4.5,3.3,6,3.3L6,3.3z M6,0C2.7,0,0,2.7,0,6s2.7,6,6,6s6-2.7,6-6S9.3,0,6,0L6,0z M6,0"/>
</g>
<line class="st2" x1="10.9" y1="0.9" x2="0.7" y2="14"/>
</svg>
