<?xml version="1.0" encoding="utf-8"?>
<!-- Generator: Adobe Illustrator 22.0.0, SVG Export Plug-In . SVG Version: 6.00 Build 0)  -->
<svg version="1.1" id="图层_1" xmlns="http://www.w3.org/2000/svg" xmlns:xlink="http://www.w3.org/1999/xlink" x="0px" y="0px"
	 viewBox="0 0 12 15.4" style="enable-background:new 0 0 12 15.4;" xml:space="preserve">
<style type="text/css">
	.st0{fill:#FFFFFF;}
	.st1{fill:#888988;}
	.st2{fill:none;stroke:#212121;stroke-linecap:round;stroke-linejoin:round;stroke-miterlimit:10;}
</style>
<g>
	<g>
		<path class="st0" d="M2.3,7.5c0,0,0,0.1,0,0.1c0,0,0,0,0,0.1c0,0,0,0.1,0,0.1c0,0,0,0,0,0.1c0,0,0,0,0,0.1c0,0,0,0,0,0l0,0.1
			c0,0,0,0.1,0,0.1l0,0c0.3,1.2,1.3,2.2,2.5,2.6c0.1,0,0.1,0,0.2,0l0,0c0,0,0.1,0,0.1,0l0.1,0c0,0,0.1,0,0.1,0l0.1,0
			c0,0,0.1,0,0.1,0l0.1,0c0,0,0.1,0,0.1,0h0.5c0,0,0.1,0,0.1,0l0.1,0l0.1,0l0.1,0l0.1,0l0.1,0c0,0,0.1,0,0.1,0l0,0
			c0.1,0,0.1,0,0.2,0c1.2-0.4,2.2-1.4,2.5-2.6c0,0,0,0,0,0c0,0,0-0.1,0-0.1l0-0.1c0,0,0,0,0,0l0-0.1c0,0,0,0,0-0.1c0,0,0-0.1,0-0.1
			c0,0,0,0,0-0.1c0,0,0-0.1,0-0.1c0,0,0,0,0-0.1V3.7c0-1.3-0.7-2.6-1.9-3.2c-1.2-0.7-2.6-0.7-3.7,0C3,1.2,2.3,2.4,2.3,3.7v3.5
			C2.3,7.3,2.3,7.4,2.3,7.5C2.3,7.5,2.3,7.5,2.3,7.5L2.3,7.5z M3.4,3.7c0-0.9,0.5-1.8,1.3-2.3C5.5,1,6.5,1,7.3,1.5
			c0.8,0.5,1.3,1.3,1.3,2.3v3.5c0,0.1,0,0.1,0,0.2v0c0,0.1,0,0.1,0,0.2c0,0,0,0,0,0c0,0.1,0,0.1,0,0.2l0,0.1c0,0,0,0.1,0,0.1
			c0,0,0,0.1,0,0.1c0,0,0,0.1,0,0.1c0,0.1-0.1,0.1-0.1,0.2l0,0C8.1,8.8,7.9,9.1,7.6,9.3l0,0c-0.1,0-0.1,0.1-0.2,0.1l0,0
			c0,0-0.1,0-0.1,0.1c0,0-0.1,0-0.1,0.1l-0.1,0c0,0-0.1,0-0.1,0.1l-0.1,0c-0.1,0-0.1,0-0.2,0.1l0,0c-0.1,0-0.1,0-0.2,0l0,0
			c-0.1,0-0.1,0-0.2,0h0c-0.1,0-0.1,0-0.2,0c-0.1,0-0.1,0-0.2,0h0c-0.1,0-0.1,0-0.2,0l0,0c-0.1,0-0.1,0-0.2,0l0,0
			c-0.1,0-0.1,0-0.2-0.1l-0.1,0c0,0-0.1,0-0.1-0.1l-0.1,0c0,0-0.1,0-0.1-0.1L4.7,9.5l0,0c-0.1,0-0.1-0.1-0.2-0.1l0,0
			C4.2,9.1,3.9,8.8,3.7,8.5c0,0,0,0,0,0c0-0.1-0.1-0.1-0.1-0.2c0,0,0-0.1,0-0.1c0,0,0-0.1,0-0.1c0-0.1,0-0.1-0.1-0.2
			c0-0.1,0-0.1,0-0.2l0,0c0-0.1,0-0.1,0-0.2v0c0-0.1,0-0.1,0-0.2L3.4,3.7z M3.4,3.7"/>
		<path class="st0" d="M11.5,7.3c-0.3,0-0.6,0.2-0.6,0.5c-0.3,2.5-2.4,4.4-4.9,4.4c-2.5,0-4.6-1.9-4.9-4.4c0-0.2-0.1-0.4-0.3-0.5
			C0.6,7.2,0.4,7.3,0.2,7.4C0.1,7.5,0,7.7,0,7.9c0.3,2.9,2.6,5.1,5.4,5.4v1H3.3c-0.2,0-0.4,0.1-0.5,0.3c-0.1,0.2-0.1,0.4,0,0.6
			c0.1,0.2,0.3,0.3,0.5,0.3h5.4c0.2,0,0.4-0.1,0.5-0.3c0.1-0.2,0.1-0.4,0-0.6c-0.1-0.2-0.3-0.3-0.5-0.3H6.6v-1
			c2.9-0.3,5.1-2.5,5.4-5.4c0-0.2,0-0.3-0.1-0.4C11.8,7.4,11.6,7.3,11.5,7.3L11.5,7.3z M11.5,7.3"/>
	</g>
</g>
</svg>
