<?xml version="1.0" encoding="utf-8"?>
<!-- Generator: Adobe Illustrator 22.0.0, SVG Export Plug-In . SVG Version: 6.00 Build 0)  -->
<svg version="1.1" id="图层_1" xmlns="http://www.w3.org/2000/svg" xmlns:xlink="http://www.w3.org/1999/xlink" x="0px" y="0px"
	 viewBox="0 0 12 15.4" style="enable-background:new 0 0 12 15.4;" xml:space="preserve">
<style type="text/css">
	.st0{fill:#FFFFFF;}
	.st1{fill:#888988;}
	.st2{fill:none;stroke:#212121;stroke-linecap:round;stroke-linejoin:round;stroke-miterlimit:10;}
</style>
<g>
	<path class="st1" d="M2.3,7.5c0,0,0,0.1,0,0.1c0,0,0,0,0,0.1c0,0,0,0.1,0,0.1c0,0,0,0,0,0.1c0,0,0,0,0,0.1c0,0,0,0,0,0l0,0.1
		c0,0,0,0.1,0,0.1l0,0c0.3,1.2,1.3,2.2,2.5,2.6c0.1,0,0.1,0,0.2,0l0,0c0,0,0.1,0,0.1,0l0.1,0c0,0,0.1,0,0.1,0l0.1,0c0,0,0.1,0,0.1,0
		l0.1,0c0,0,0.1,0,0.1,0h0.5c0,0,0.1,0,0.1,0l0.1,0l0.1,0l0.1,0l0.1,0l0.1,0c0,0,0.1,0,0.1,0l0,0c0.1,0,0.1,0,0.2,0
		c1.2-0.4,2.2-1.4,2.5-2.6c0,0,0,0,0,0c0,0,0-0.1,0-0.1l0-0.1c0,0,0,0,0,0l0-0.1c0,0,0,0,0-0.1c0,0,0-0.1,0-0.1c0,0,0,0,0-0.1
		c0,0,0-0.1,0-0.1c0,0,0,0,0-0.1V3.7c0-1.3-0.7-2.6-1.9-3.2c-1.2-0.7-2.6-0.7-3.7,0C3,1.2,2.3,2.4,2.3,3.7v3.5
		C2.3,7.3,2.3,7.4,2.3,7.5C2.3,7.5,2.3,7.5,2.3,7.5z"/>
	<path class="st1" d="M12,7.9c0-0.2,0-0.3-0.1-0.4c-0.1-0.1-0.2-0.2-0.4-0.2c-0.3,0-0.6,0.2-0.6,0.5c-0.3,2.5-2.4,4.4-4.9,4.4
		s-4.6-1.9-4.9-4.4c0-0.2-0.1-0.4-0.3-0.5C0.6,7.2,0.4,7.3,0.2,7.4C0.1,7.5,0,7.7,0,7.9c0.3,2.9,2.6,5.1,5.4,5.4v1H3.3
		c-0.2,0-0.4,0.1-0.5,0.3c-0.1,0.2-0.1,0.4,0,0.6c0.1,0.2,0.3,0.3,0.5,0.3h5.4c0.2,0,0.4-0.1,0.5-0.3c0.1-0.2,0.1-0.4,0-0.6
		c-0.1-0.2-0.3-0.3-0.5-0.3H6.6v-1C9.4,13,11.7,10.8,12,7.9z"/>
</g>
<line class="st2" x1="11.3" y1="0.9" x2="0.6" y2="14.6"/>
</svg>
