<?xml version="1.0" encoding="utf-8"?>
<!-- Generator: Adobe Illustrator 22.0.0, SVG Export Plug-In . SVG Version: 6.00 Build 0)  -->
<svg version="1.1" id="图层_1" xmlns="http://www.w3.org/2000/svg" xmlns:xlink="http://www.w3.org/1999/xlink" x="0px" y="0px"
	 viewBox="0 0 10 10" style="enable-background:new 0 0 10 10;" xml:space="preserve">
<style type="text/css">
	.st0{fill:none;}
	.st1{fill:#2D8CF0;}
</style>
<rect x="-1090" y="-457" class="st0" width="819.8" height="820.7"/>
<g>
	<path d="M-1951.1,618.9c0,32.4-30.3,62.7-62.7,62.7h-595.6c-31.9,0-62.7-30.3-62.7-62.7V23.3c0-31.9,30.3-62.7,62.7-62.7h596
		c31.9,0,62.7,30.3,62.7,62.7v595.6H-1951.1z M-2013.7-88.5h-595.6c-59.8,0-111.8,52-111.8,111.8v595.6c0,59.8,52,111.8,111.8,111.8
		h596c59.4,0,111.8-52,111.8-111.8V23.3C-1901.9-36.5-1953.9-88.5-2013.7-88.5L-2013.7-88.5z M-2013.7-88.5"/>
	<path d="M-2322.6,429.3c3.7,3.7,7.4,3.7,11.1,3.7c3.7,0,7.4,0,11.1-3.7l141.3-141.3c11.1-11.1,3.7-33.6-11.1-33.6h-44.6
		c-11.1,0-18.4-7.4-18.4-18.4V116.3c0-11.1-7.4-18.4-18.4-18.4h-119.2c-11.5,0-18.8,7.4-18.8,18.4v122.9c0,11.1-7.4,18.8-18.4,18.8
		h-44.6c-15.2-0.4-22.5,18.4-11.5,29.5L-2322.6,429.3z M-2151.4,492.3H-2468c-14.7,0-26.2,11.1-26.2,26.2
		c0,14.7,11.1,26.2,26.2,26.2h316.6c14.7,0,26.2-11.1,26.2-26.2C-2125.2,503.4-2136.6,492.3-2151.4,492.3"/>
</g>
<g>
	<path class="st1" d="M8.6,0H1.4C0.6,0,0,0.6,0,1.4v7.3C0,9.4,0.6,10,1.4,10h7.3C9.4,10,10,9.4,10,8.6V1.4C10,0.6,9.4,0,8.6,0z
		 M9.4,8.6L9.4,8.6C9.4,9,9,9.4,8.6,9.4H1.4C1,9.4,0.6,9,0.6,8.6V1.4C0.6,1,1,0.6,1.4,0.6h7.3C9,0.6,9.4,1,9.4,1.4V8.6z"/>
	<path class="st1" d="M4.9,6.3c0,0,0.1,0,0.1,0c0,0,0.1,0,0.1,0l1.7-1.7c0.1-0.1,0-0.4-0.1-0.4H6.2C6,4.2,6,4.1,6,4V2.5
		c0-0.1-0.1-0.2-0.2-0.2H4.3C4.1,2.3,4,2.4,4,2.5V4C4,4.1,4,4.2,3.8,4.2H3.3C3.1,4.2,3,4.5,3.1,4.6L4.9,6.3z"/>
	<path class="st1" d="M7,7.1H3.1c-0.2,0-0.3,0.1-0.3,0.3c0,0.2,0.1,0.3,0.3,0.3H7c0.2,0,0.3-0.1,0.3-0.3C7.3,7.2,7.1,7.1,7,7.1z"/>
</g>
</svg>
