<svg id="图层_1" data-name="图层 1" xmlns="http://www.w3.org/2000/svg" viewBox="0 0 22 22"><defs><style>.cls-1{fill:#c4c4c4;}</style></defs><title>禁言中</title><path class="cls-1" d="M10.35,13.5a3.94,3.94,0,0,0,.77-.07L6.44,7.82V9.75A3.83,3.83,0,0,0,10.35,13.5Z"/><path class="cls-1" d="M18.77,18.53,4.83,1.84A1,1,0,0,0,3.38,1.7a1,1,0,0,0-.15,1.4L17.17,19.79a1,1,0,0,0,.8.37,1,1,0,0,0,.65-.22A1,1,0,0,0,18.77,18.53Z"/><path class="cls-1" d="M17.53,10.07h0a1,1,0,0,0-2,0,4.84,4.84,0,0,1-.85,2.75L16,14.32A6.61,6.61,0,0,0,17.53,10.07Z"/><path class="cls-1" d="M14.27,9.75v-5A3.84,3.84,0,0,0,10.35,1a3.92,3.92,0,0,0-3.6,2.27l7,8.36A3.55,3.55,0,0,0,14.27,9.75Z"/><path class="cls-1" d="M14.6,19.13H11.33V16.87a7.4,7.4,0,0,0,2.15-.62l-1.27-1.51a5.42,5.42,0,0,1-1.86.32,5.11,5.11,0,0,1-5.22-5,1,1,0,0,0-1-.93,1,1,0,0,0-1,.93h0a7,7,0,0,0,6.2,6.8v2.26H6.11a.94.94,0,1,0,0,1.87H14.6a.94.94,0,1,0,0-1.87Z"/></svg>